<?xml version="1.0"?>
<svg xmlns="http://www.w3.org/2000/svg" xmlns:xlink="http://www.w3.org/1999/xlink" xmlns:svgjs="http://svgjs.com/svgjs" version="1.1" width="512" height="512" x="0" y="0" viewBox="0 0 512 512" style="enable-background:new 0 0 512 512" xml:space="preserve" class=""><g>
<g xmlns="http://www.w3.org/2000/svg">
	<g>
		<path d="M377.536,0H134.464c-22.499,0-40.802,18.304-40.802,40.802v363.673c0,4.163,3.374,7.537,7.537,7.537    c4.163,0,7.537-3.374,7.537-7.537V40.802c0-14.186,11.542-25.728,25.728-25.728h243.072c14.186,0,25.728,11.542,25.728,25.728    v430.396c0,14.186-11.542,25.728-25.728,25.728H134.464c-14.186,0-25.728-11.542-25.728-25.728V438.1    c0-4.163-3.374-7.537-7.537-7.537c-4.163,0-7.537,3.374-7.537,7.537v33.098c0,22.499,18.303,40.802,40.802,40.802h243.072    c22.499,0,40.802-18.303,40.802-40.802V40.802C418.338,18.304,400.034,0,377.536,0z" fill="#ffffff" data-original="#000000" style="" class=""/>
	</g>
</g>
<g xmlns="http://www.w3.org/2000/svg">
	<g>
		<path d="M227.975,374.971h-18.638v-18.638c0-9.388-7.638-17.026-17.026-17.026h-13.936c-9.388,0-17.025,7.638-17.025,17.026    v18.638h-18.638c-9.388,0-17.026,7.637-17.026,17.025v13.936c0,9.388,7.638,17.026,17.026,17.026h18.638v18.638    c0,9.388,7.637,17.026,17.025,17.026h13.936c9.388,0,17.026-7.638,17.026-17.026v-18.638h18.638    c9.388,0,17.026-7.638,17.026-17.026v-13.936C245.001,382.608,237.363,374.971,227.975,374.971z M229.925,405.932    c0,1.077-0.875,1.952-1.952,1.952h-20.195c-7.452,0-13.516,6.064-13.516,13.516v20.195c0,1.077-0.875,1.952-1.952,1.952h-13.936    c-1.076,0-1.951-0.875-1.951-1.952V421.4c0-7.452-6.064-13.516-13.517-13.516h-20.194c-1.077,0-1.952-0.875-1.952-1.952v-13.936    c0-1.076,0.875-1.951,1.952-1.951h20.194c7.453,0,13.517-6.064,13.517-13.517v-20.194c0-1.077,0.875-1.952,1.951-1.952h13.936    c1.077,0,1.952,0.875,1.952,1.952v20.194c0,7.453,6.064,13.517,13.516,13.517h20.195c1.077,0,1.952,0.875,1.952,1.951V405.932z" fill="#ffffff" data-original="#000000" style="" class=""/>
	</g>
</g>
<g xmlns="http://www.w3.org/2000/svg">
	<g>
		<path d="M363.407,376.355c-12.467,0-22.61,10.143-22.61,22.61c0,12.467,10.143,22.61,22.61,22.61    c12.467,0,22.61-10.143,22.61-22.61C386.017,386.498,375.874,376.355,363.407,376.355z M363.407,406.502    c-4.156,0-7.537-3.381-7.537-7.537c0-4.156,3.381-7.537,7.537-7.537s7.537,3.381,7.537,7.537    C370.944,403.121,367.563,406.502,363.407,406.502z" fill="#ffffff" data-original="#000000" style="" class=""/>
	</g>
</g>
<g xmlns="http://www.w3.org/2000/svg">
	<g>
		<path d="M285.135,376.355c-12.467,0-22.61,10.143-22.61,22.61s10.143,22.61,22.61,22.61c12.467,0,22.61-10.143,22.61-22.61    C307.745,386.498,297.602,376.355,285.135,376.355z M285.135,406.502c-4.156,0-7.537-3.381-7.537-7.537    c0-4.156,3.381-7.537,7.537-7.537s7.537,3.381,7.537,7.537C292.672,403.121,289.291,406.502,285.135,406.502z" fill="#ffffff" data-original="#000000" style="" class=""/>
	</g>
</g>
<g xmlns="http://www.w3.org/2000/svg">
	<g>
		<path d="M324.272,415.491c-12.467,0-22.61,10.143-22.61,22.61s10.143,22.61,22.61,22.61c12.467,0,22.61-10.143,22.61-22.61    S336.739,415.491,324.272,415.491z M324.272,445.637c-4.156,0-7.537-3.381-7.537-7.537c0-4.156,3.381-7.537,7.537-7.537    s7.537,3.381,7.537,7.537C331.809,442.256,328.428,445.637,324.272,445.637z" fill="#ffffff" data-original="#000000" style="" class=""/>
	</g>
</g>
<g xmlns="http://www.w3.org/2000/svg">
	<g>
		<path d="M324.271,337.219c-12.466,0-22.61,10.143-22.61,22.61c0,12.467,10.143,22.61,22.61,22.61    c12.467,0,22.61-10.143,22.61-22.61C346.881,347.362,336.738,337.219,324.271,337.219z M324.272,367.366    c-4.156,0-7.537-3.381-7.537-7.537c0-4.156,3.381-7.537,7.537-7.537s7.537,3.381,7.537,7.537    C331.809,363.985,328.428,367.366,324.272,367.366z" fill="#ffffff" data-original="#000000" style="" class=""/>
	</g>
</g>
<g xmlns="http://www.w3.org/2000/svg">
	<g>
		<path d="M172.749,288.613h-39.526c-4.163,0-7.537,3.374-7.537,7.537c0,4.163,3.374,7.537,7.537,7.537h39.526    c4.163,0,7.537-3.374,7.537-7.537C180.286,291.987,176.912,288.613,172.749,288.613z" fill="#ffffff" data-original="#000000" style="" class=""/>
	</g>
</g>
<g xmlns="http://www.w3.org/2000/svg">
	<g>
		<path d="M239.826,288.613h-33.227c-4.163,0-7.537,3.374-7.537,7.537c0,4.163,3.374,7.537,7.537,7.537h33.227    c4.163,0,7.537-3.374,7.537-7.537C247.363,291.987,243.989,288.613,239.826,288.613z" fill="#ffffff" data-original="#000000" style="" class=""/>
	</g>
</g>
<g xmlns="http://www.w3.org/2000/svg">
	<g>
		<path d="M307.338,288.613h-33.662c-4.163,0-7.537,3.374-7.537,7.537c0,4.163,3.374,7.537,7.537,7.537h33.662    c4.163,0,7.537-3.374,7.537-7.537C314.875,291.987,311.5,288.613,307.338,288.613z" fill="#ffffff" data-original="#000000" style="" class=""/>
	</g>
</g>
<g xmlns="http://www.w3.org/2000/svg">
	<g>
		<path d="M380.713,288.613h-39.526c-4.163,0-7.537,3.374-7.537,7.537c0,4.163,3.374,7.537,7.537,7.537h39.526    c4.163,0,7.537-3.374,7.537-7.537C388.25,291.987,384.876,288.613,380.713,288.613z" fill="#ffffff" data-original="#000000" style="" class=""/>
	</g>
</g>
<g xmlns="http://www.w3.org/2000/svg">
	<g>
		<path d="M378.779,36.702H317.52c-4.163,0-7.537,3.374-7.537,7.537c0,4.163,3.374,7.537,7.537,7.537h53.72v171.866h-26.13v-52.937    c0-4.162-3.374-7.537-7.537-7.537h-30.237c-4.163,0-7.537,3.374-7.537,7.537v52.937h-54.801v-52.937    c0-4.162-3.374-7.537-7.537-7.537H140.76V51.776h52.438v22.7c0,4.162,3.374,7.537,7.537,7.537h28.521v27.522    c-0.001,4.162,3.373,7.537,7.536,7.537h30.238c4.163,0,7.537-3.374,7.537-7.537V51.776h10.127c4.163,0,7.537-3.374,7.537-7.537    c0-4.163-3.374-7.537-7.537-7.537h-17.663h-66.295h-67.511c-4.163,0-7.537,3.374-7.537,7.537v126.466v30.236v30.237v30.237    c0,4.163,3.374,7.537,7.537,7.537h36.727h67.512h2.363h67.511h0.001h71.44c4.163,0,7.537-3.374,7.537-7.537v-30.237V44.239    C386.316,40.077,382.942,36.702,378.779,36.702z M208.271,51.776h51.222v50.222h-15.164V74.476c0-4.162-3.374-7.537-7.537-7.537    c0,0-28.521,0-28.521,0V51.776z M140.76,178.242h89.165v45.4H208.27v-22.7c0-4.162-3.374-7.537-7.537-7.537h-0.132H140.76V178.242    z M162.414,253.879H140.76v-15.163h21.654V253.879z M169.95,223.642h-29.19v-15.163h52.305v15.163H169.95z M229.926,253.879    h-52.439v0v-15.163h21.731c0.449,0.083,0.91,0.132,1.384,0.132h29.324V253.879z M299.8,253.879h-52.438v-15.163H299.8V253.879z     M371.24,253.879h-56.366v-22.7c0-0.007-0.001-0.013-0.001-0.019v-52.917h15.164v52.936c0,4.162,3.374,7.537,7.537,7.537h33.666    V253.879z" fill="#ffffff" data-original="#000000" style="" class=""/>
	</g>
</g>
<g xmlns="http://www.w3.org/2000/svg">
</g>
<g xmlns="http://www.w3.org/2000/svg">
</g>
<g xmlns="http://www.w3.org/2000/svg">
</g>
<g xmlns="http://www.w3.org/2000/svg">
</g>
<g xmlns="http://www.w3.org/2000/svg">
</g>
<g xmlns="http://www.w3.org/2000/svg">
</g>
<g xmlns="http://www.w3.org/2000/svg">
</g>
<g xmlns="http://www.w3.org/2000/svg">
</g>
<g xmlns="http://www.w3.org/2000/svg">
</g>
<g xmlns="http://www.w3.org/2000/svg">
</g>
<g xmlns="http://www.w3.org/2000/svg">
</g>
<g xmlns="http://www.w3.org/2000/svg">
</g>
<g xmlns="http://www.w3.org/2000/svg">
</g>
<g xmlns="http://www.w3.org/2000/svg">
</g>
<g xmlns="http://www.w3.org/2000/svg">
</g>
</g></svg>
