<?xml version="1.0"?>
<svg xmlns="http://www.w3.org/2000/svg" xmlns:xlink="http://www.w3.org/1999/xlink" xmlns:svgjs="http://svgjs.com/svgjs" version="1.1" width="512" height="512" x="0" y="0" viewBox="0 0 512.001 512.001" style="enable-background:new 0 0 512 512" xml:space="preserve"><g>
<g xmlns="http://www.w3.org/2000/svg">
	<g>
		<path d="M476.961,109.354h-36.548c-4.309,0-7.801,3.493-7.801,7.801c0,4.308,3.492,7.801,7.801,7.801h36.548    c10.718,0,19.438,8.72,19.438,19.438v223.213c0,10.718-8.72,19.438-19.438,19.438H373.663l-14.183-32.095    c-3.388-7.669-10.996-12.625-19.381-12.625H234.756c-4.309,0-7.801,3.493-7.801,7.801c0,4.308,3.492,7.801,7.801,7.801h105.343    c2.211,0,4.217,1.306,5.11,3.329l11.397,25.788h-193.3l11.718-25.838c0.904-1.992,2.901-3.28,5.089-3.28h21.534    c4.309,0,7.801-3.493,7.801-7.801c0-4.308-3.492-7.801-7.801-7.801h-21.534c-8.295,0-15.869,4.882-19.296,12.437l-14.641,32.282    H35.039c-10.718,0-19.438-8.72-19.438-19.438V324.21h10.525c11.521,0,20.894-9.373,20.894-20.894v-94.632    c0-11.521-9.373-20.894-20.894-20.894H15.601v-43.396c0-10.718,8.72-19.438,19.438-19.438h367.519    c4.309,0,7.801-3.493,7.801-7.801s-3.492-7.801-7.801-7.801H35.039C15.718,109.354,0,125.073,0,144.393v51.197v120.82v51.197    c0,19.32,15.718,35.039,35.039,35.039h116.164h217.379h108.38c19.321,0,35.039-15.719,35.039-35.039V144.393    C512,125.073,496.282,109.354,476.961,109.354z M15.601,203.391h10.525c2.918,0,5.293,2.374,5.293,5.293v94.632    c0,2.919-2.375,5.293-5.293,5.293H15.601V203.391z" fill="#ffffff" data-original="#000000" style=""/>
	</g>
</g>
<g xmlns="http://www.w3.org/2000/svg">
	<g>
		<path d="M86.826,308.609c-17.934,0-32.525,14.591-32.525,32.525c0,17.934,14.591,32.525,32.525,32.525    c17.933,0,32.524-14.591,32.524-32.525C119.35,323.201,104.759,308.609,86.826,308.609z M86.826,358.057    c-9.332,0-16.924-7.592-16.924-16.923s7.592-16.923,16.924-16.923c9.332,0,16.923,7.591,16.923,16.923    C103.749,350.465,96.158,358.057,86.826,358.057z" fill="#ffffff" data-original="#000000" style=""/>
	</g>
</g>
<g xmlns="http://www.w3.org/2000/svg">
	<g>
		<path d="M432.612,308.609c-17.933,0-32.524,14.591-32.524,32.525c0,17.934,14.591,32.525,32.524,32.525    s32.524-14.591,32.524-32.525C465.136,323.201,450.545,308.609,432.612,308.609z M432.612,358.057    c-9.331,0-16.923-7.592-16.923-16.923s7.591-16.923,16.923-16.923c9.331-0.001,16.923,7.591,16.923,16.923    C449.535,350.465,441.944,358.057,432.612,358.057z" fill="#ffffff" data-original="#000000" style=""/>
	</g>
</g>
<g xmlns="http://www.w3.org/2000/svg">
	<g>
		<circle cx="377.42" cy="162.39" r="7.801" fill="#ffffff" data-original="#000000" style=""/>
	</g>
</g>
<g xmlns="http://www.w3.org/2000/svg">
	<g>
		<circle cx="337.38" cy="206.421" r="7.801" fill="#ffffff" data-original="#000000" style=""/>
	</g>
</g>
<g xmlns="http://www.w3.org/2000/svg">
	<g>
		<circle cx="424.81" cy="206.421" r="7.801" fill="#ffffff" data-original="#000000" style=""/>
	</g>
</g>
<g xmlns="http://www.w3.org/2000/svg">
	<g>
		<circle cx="377.42" cy="230.29" r="7.801" fill="#ffffff" data-original="#000000" style=""/>
	</g>
</g>
<g xmlns="http://www.w3.org/2000/svg">
	<g>
		<circle cx="333.22" cy="278.5" r="7.801" fill="#ffffff" data-original="#000000" style=""/>
	</g>
</g>
<g xmlns="http://www.w3.org/2000/svg">
	<g>
		<circle cx="432.61" cy="270.7" r="7.801" fill="#ffffff" data-original="#000000" style=""/>
	</g>
</g>
<g xmlns="http://www.w3.org/2000/svg">
	<g>
		<circle cx="385.22" cy="286.3" r="7.801" fill="#ffffff" data-original="#000000" style=""/>
	</g>
</g>
<g xmlns="http://www.w3.org/2000/svg">
	<g>
		<path d="M172.699,193.268H90.531c-10.992,0-19.935,8.943-19.935,19.935c0,10.051,7.478,18.389,17.161,19.743v29.957    c0,4.308,3.492,7.801,7.801,7.801h11.311c10.395-0.001,18.852-8.458,18.852-18.852V231.85l41.421-7.518    c7.74-1.405,13.358-8.133,13.358-15.999v-7.264C180.5,196.761,177.008,193.268,172.699,193.268z M164.356,208.98l-47.829,8.681    c-3.71,0.675-6.408,3.906-6.408,7.676v26.514c0,1.792-1.459,3.25-3.25,3.25h-3.51v-29.764c0-4.308-3.492-7.801-7.801-7.801h-5.027    c-2.39,0-4.334-1.944-4.334-4.334c0-2.389,1.944-4.334,4.334-4.334h74.09C164.544,208.923,164.454,208.962,164.356,208.98z" fill="#ffffff" data-original="#000000" style=""/>
	</g>
</g>
<g xmlns="http://www.w3.org/2000/svg">
	<g>
		<path d="M268.213,197.285h-43.304c-4.309,0-7.801,3.493-7.801,7.801s3.492,7.801,7.801,7.801h43.304    c4.309,0,7.801-3.493,7.801-7.801S272.522,197.285,268.213,197.285z" fill="#ffffff" data-original="#000000" style=""/>
	</g>
</g>
<g xmlns="http://www.w3.org/2000/svg">
</g>
<g xmlns="http://www.w3.org/2000/svg">
</g>
<g xmlns="http://www.w3.org/2000/svg">
</g>
<g xmlns="http://www.w3.org/2000/svg">
</g>
<g xmlns="http://www.w3.org/2000/svg">
</g>
<g xmlns="http://www.w3.org/2000/svg">
</g>
<g xmlns="http://www.w3.org/2000/svg">
</g>
<g xmlns="http://www.w3.org/2000/svg">
</g>
<g xmlns="http://www.w3.org/2000/svg">
</g>
<g xmlns="http://www.w3.org/2000/svg">
</g>
<g xmlns="http://www.w3.org/2000/svg">
</g>
<g xmlns="http://www.w3.org/2000/svg">
</g>
<g xmlns="http://www.w3.org/2000/svg">
</g>
<g xmlns="http://www.w3.org/2000/svg">
</g>
<g xmlns="http://www.w3.org/2000/svg">
</g>
</g></svg>
