<?xml version="1.0"?>
<svg xmlns="http://www.w3.org/2000/svg" xmlns:xlink="http://www.w3.org/1999/xlink" xmlns:svgjs="http://svgjs.com/svgjs" version="1.1" width="512" height="512" x="0" y="0" viewBox="0 0 512 512" style="enable-background:new 0 0 512 512" xml:space="preserve"><g>
<g xmlns="http://www.w3.org/2000/svg">
	<g>
		<path d="M506.341,5.711c-8.991-8.99-25.008-7.391-50.406,5.036c-19.989,9.781-45.033,25.93-74.482,48.014    c-39.196-28.56-86.244-43.991-135.671-43.991c-61.707,0-119.72,24.03-163.353,67.663S14.765,184.08,14.765,245.787    c0,49.379,15.624,96.628,43.994,135.666c-22.085,29.451-38.236,54.497-48.017,74.488c-12.426,25.397-14.027,41.414-5.035,50.405    c3.744,3.744,8.827,5.619,15.331,5.619c6.914,0,15.438-2.129,25.647-6.374c4.353,3.976,10.142,6.405,16.488,6.405    c13.494,0,24.472-10.978,24.472-24.471c0-1.371-0.119-2.714-0.337-4.024c14.846-9.446,31.247-21.02,48.775-34.364    c33.531,18.112,71.34,27.668,109.699,27.668c61.707,0,119.721-24.03,163.354-67.663s67.663-101.647,67.663-163.353    c0-38.947-9.583-76.419-27.615-109.736c5.732-7.542,11.166-14.906,16.262-22.057c2.545-3.572,1.713-8.531-1.859-11.076    c-3.573-2.545-8.531-1.713-11.076,1.859c-3.832,5.377-7.863,10.881-12.065,16.488c-8.913-13.872-19.372-26.893-31.31-38.831    c-4.742-4.742-9.664-9.238-14.732-13.512c26.892-19.956,50.455-35.071,68.513-43.907c26.727-13.077,32.142-8.123,32.193-8.071    c0.082,0.082,7.818,8.715-21.766,56.664c-2.303,3.732-1.144,8.626,2.589,10.929c1.3,0.802,2.74,1.184,4.162,1.184    c2.663,0,5.266-1.34,6.766-3.773C511.778,41.562,517.967,17.337,506.341,5.711z M63.172,496.112c-4.736,0-8.588-3.852-8.588-8.588    s3.852-8.588,8.588-8.588s8.589,3.852,8.589,8.588C71.761,492.259,67.908,496.112,63.172,496.112z M460.916,245.787    c0,118.625-96.509,215.133-215.134,215.133c-33.347,0-66.234-7.766-95.854-22.51c46.446-36.564,99.553-84.141,151.945-136.533    c52.564-52.563,99.814-105.194,136.51-151.862C452.791,178.875,460.916,211.398,460.916,245.787z M430.057,134.876    c-36.839,47.449-85.254,101.608-139.416,155.77c-76.888,76.888-155.114,143.174-210.93,178.86    c-4.359-4.004-10.168-6.454-16.539-6.454c-13.494,0-24.471,10.978-24.471,24.471c0,1.376,0.12,2.724,0.339,4.038    c-14.305,5.727-20.681,4.972-22.102,3.552c-0.052-0.052-5.006-5.467,8.071-32.193c8.836-18.058,23.952-41.622,43.907-68.514    c8.876,10.543,18.738,20.379,29.555,29.343c3.377,2.798,8.384,2.329,11.182-1.048c2.799-3.377,2.329-8.384-1.048-11.182    c-12.465-10.329-23.589-21.885-33.262-34.417c-0.206-0.314-0.428-0.619-0.682-0.906c-28.34-37.118-44.013-82.695-44.013-130.411    c0-118.625,96.508-215.134,215.133-215.134C323.862,30.653,392.354,72.468,430.057,134.876z" fill="#ffffff" data-original="#000000" style=""/>
	</g>
</g>
<g xmlns="http://www.w3.org/2000/svg">
	<g>
		<path d="M212.921,69.834c-19.669,0-35.671,16.002-35.671,35.671s16.002,35.671,35.671,35.671s35.671-16.002,35.671-35.671    S232.59,69.834,212.921,69.834z M212.921,125.293c-10.911,0-19.788-8.877-19.788-19.788s8.877-19.788,19.788-19.788    s19.788,8.877,19.788,19.788S223.832,125.293,212.921,125.293z" fill="#ffffff" data-original="#000000" style=""/>
	</g>
</g>
<g xmlns="http://www.w3.org/2000/svg">
	<g>
		<path d="M139.409,87.835c-13.494,0-24.471,10.978-24.471,24.471c0,13.493,10.978,24.472,24.471,24.472    c13.494,0,24.471-10.978,24.471-24.472C163.88,98.812,152.903,87.835,139.409,87.835z M139.409,120.895    c-4.736,0-8.588-3.853-8.588-8.589c0-4.736,3.852-8.588,8.588-8.588c4.736,0,8.588,3.852,8.588,8.588    C147.997,117.042,144.145,120.895,139.409,120.895z" fill="#ffffff" data-original="#000000" style=""/>
	</g>
</g>
<g xmlns="http://www.w3.org/2000/svg">
</g>
<g xmlns="http://www.w3.org/2000/svg">
</g>
<g xmlns="http://www.w3.org/2000/svg">
</g>
<g xmlns="http://www.w3.org/2000/svg">
</g>
<g xmlns="http://www.w3.org/2000/svg">
</g>
<g xmlns="http://www.w3.org/2000/svg">
</g>
<g xmlns="http://www.w3.org/2000/svg">
</g>
<g xmlns="http://www.w3.org/2000/svg">
</g>
<g xmlns="http://www.w3.org/2000/svg">
</g>
<g xmlns="http://www.w3.org/2000/svg">
</g>
<g xmlns="http://www.w3.org/2000/svg">
</g>
<g xmlns="http://www.w3.org/2000/svg">
</g>
<g xmlns="http://www.w3.org/2000/svg">
</g>
<g xmlns="http://www.w3.org/2000/svg">
</g>
<g xmlns="http://www.w3.org/2000/svg">
</g>
</g></svg>
