<?xml version="1.0"?>
<svg xmlns="http://www.w3.org/2000/svg" xmlns:xlink="http://www.w3.org/1999/xlink" xmlns:svgjs="http://svgjs.com/svgjs" version="1.1" width="512" height="512" x="0" y="0" viewBox="0 0 511.999 511.999" style="enable-background:new 0 0 512 512" xml:space="preserve" class=""><g>
<g xmlns="http://www.w3.org/2000/svg">
	<g>
		<circle cx="305.84" cy="358.12" r="7.739" fill="#ffffff" data-original="#000000" style="" class=""/>
	</g>
</g>
<g xmlns="http://www.w3.org/2000/svg">
	<g>
		<path d="M438.22,333.87c-13.372,0-24.25,10.878-24.25,24.25s10.878,24.25,24.25,24.25s24.25-10.878,24.25-24.25    S451.592,333.87,438.22,333.87z M438.22,366.891c-4.837,0-8.771-3.935-8.771-8.771s3.935-8.771,8.771-8.771    c4.837,0,8.771,3.935,8.771,8.771S443.057,366.891,438.22,366.891z" fill="#ffffff" data-original="#000000" style="" class=""/>
	</g>
</g>
<g xmlns="http://www.w3.org/2000/svg">
	<g>
		<path d="M494.069,277.077h-87.048c15.139-16.888,21.452-40.649,15.603-63.476l-19.917-77.723c-1.061-4.14-5.275-6.635-9.418-5.576    c-4.14,1.061-6.637,5.277-5.576,9.418l19.917,77.723c5.749,22.434-3.623,46.038-22.884,58.5l-41.25-51.662    c-8.097-10.142-20.185-15.958-33.163-15.958H256h-54.332c-12.978,0-25.066,5.817-33.164,15.958l-41.249,51.662    c-19.261-12.462-28.632-36.066-22.884-58.5l25.283-98.666c4.073-15.896,15.681-28.817,31.051-34.564l21.255-7.947    c4.924-1.843,10.509-0.629,14.227,3.088c0.001,0.001,0.001,0.001,0.002,0.002l21.19,21.19c5.356,5.356,12.476,8.305,20.05,8.305    H256h18.571c7.574,0,14.694-2.95,20.051-8.305l21.191-21.191c3.718-3.718,9.3-4.93,14.229-3.089l21.254,7.947    c12.497,4.673,22.451,13.921,28.027,26.04c1.305,2.835,4.107,4.507,7.036,4.507c1.082,0,2.182-0.228,3.23-0.71    c3.883-1.787,5.583-6.383,3.796-10.266c-7.295-15.855-20.317-27.954-36.667-34.068l-21.254-7.947    c-9.506-3.555-20.148-1.802-28.013,4.375h-102.9c-7.864-6.178-18.506-7.931-28.012-4.375l-21.255,7.947    c-20.109,7.519-35.295,24.423-40.624,45.219l-25.283,98.666c-5.849,22.827,0.463,46.589,15.602,63.476H17.932    C8.044,277.077,0,285.121,0,295.008v49.181v27.862v49.18c0,9.887,8.044,17.931,17.932,17.931h31.427v5.151    c0,4.274,3.465,7.739,7.739,7.739c4.274,0,7.739-3.465,7.739-7.739v-5.151h382.325v5.151c0,4.274,3.465,7.739,7.739,7.739    c4.274,0,7.739-3.465,7.739-7.739v-5.151h31.428c9.887,0,17.931-8.044,17.931-17.931V295.008    C512,285.121,503.956,277.077,494.069,277.077z M291.656,81.622l-7.979,7.979c-2.432,2.433-5.667,3.772-9.106,3.772H256h-18.571    c-3.439,0-6.673-1.339-9.105-3.771l-7.98-7.98H291.656z M494.069,423.683H17.932c-1.352,0-2.453-1.1-2.453-2.452v-49.18v-20.122    h246.112v12.383H40.933c-4.274,0-7.739,3.465-7.739,7.739c0,4.274,3.465,7.739,7.739,7.739h221.791    c7.911,0,14.346-6.435,14.346-14.346v-14.648c0-7.911-6.435-14.346-14.346-14.346H15.479v-41.441c0-1.352,1.1-2.452,2.453-2.452    h109.956c0.079,0.002,0.158,0.015,0.236,0.015c0.091,0,0.181-0.013,0.272-0.015h35.679c4.274,0,7.739-3.465,7.739-7.739    c0-4.274-3.465-7.739-7.739-7.739h-17.919l34.443-43.138c5.144-6.442,12.823-10.138,21.068-10.138H256h54.333    c8.245,0,15.924,3.695,21.068,10.138l34.444,43.138H197.858c-4.274,0-7.739,3.465-7.739,7.739c0,4.274,3.465,7.739,7.739,7.739    h185.745c0.091,0.002,0.181,0.015,0.272,0.015c0.079,0,0.157-0.014,0.236-0.015h109.957c1.352,0,2.452,1.1,2.452,2.452v126.222    h0.001C496.521,422.583,495.421,423.683,494.069,423.683z" fill="#ffffff" data-original="#000000" style="" class=""/>
	</g>
</g>
<g xmlns="http://www.w3.org/2000/svg">
	<g>
		<path d="M175.472,89.431c-14.432,0-26.175,11.742-26.175,26.175c0,14.433,11.742,26.174,26.175,26.174    c14.433,0,26.174-11.742,26.174-26.174C201.646,101.173,189.904,89.431,175.472,89.431z M175.472,126.301    c-5.898,0-10.696-4.798-10.696-10.696s4.798-10.696,10.696-10.696c5.898,0,10.696,4.798,10.696,10.696    C186.167,121.503,181.369,126.301,175.472,126.301z" fill="#ffffff" data-original="#000000" style="" class=""/>
	</g>
</g>
<g xmlns="http://www.w3.org/2000/svg">
	<g>
		<path d="M302.767,140.379c-14.432,0-26.175,11.742-26.175,26.175c0,14.433,11.742,26.174,26.175,26.174    s26.174-11.742,26.174-26.174C328.941,152.122,317.199,140.379,302.767,140.379z M302.767,177.25    c-5.898,0-10.696-4.798-10.696-10.696c0-5.898,4.798-10.696,10.696-10.696s10.696,4.798,10.696,10.696    C313.463,172.452,308.665,177.25,302.767,177.25z" fill="#ffffff" data-original="#000000" style="" class=""/>
	</g>
</g>
<g xmlns="http://www.w3.org/2000/svg">
	<g>
		<circle cx="340.03" cy="99.28" r="7.739" fill="#ffffff" data-original="#000000" style="" class=""/>
	</g>
</g>
<g xmlns="http://www.w3.org/2000/svg">
	<g>
		<circle cx="340.03" cy="140.38" r="7.739" fill="#ffffff" data-original="#000000" style="" class=""/>
	</g>
</g>
<g xmlns="http://www.w3.org/2000/svg">
	<g>
		<circle cx="317.93" cy="120.15" r="7.739" fill="#ffffff" data-original="#000000" style="" class=""/>
	</g>
</g>
<g xmlns="http://www.w3.org/2000/svg">
	<g>
		<circle cx="362.13" cy="120.15" r="7.739" fill="#ffffff" data-original="#000000" style="" class=""/>
	</g>
</g>
<g xmlns="http://www.w3.org/2000/svg">
	<g>
		<path d="M234.729,158.815h-10.696v-10.696c0-4.274-3.465-7.739-7.739-7.739s-7.739,3.465-7.739,7.739v10.696h-10.696    c-4.274,0-7.739,3.465-7.739,7.739c0,4.274,3.465,7.739,7.739,7.739h10.696v10.696c0,4.274,3.465,7.739,7.739,7.739    s7.739-3.465,7.739-7.739v-10.696h10.696c4.274,0,7.739-3.465,7.739-7.739C242.468,162.28,239.003,158.815,234.729,158.815z" fill="#ffffff" data-original="#000000" style="" class=""/>
	</g>
</g>
<g xmlns="http://www.w3.org/2000/svg">
</g>
<g xmlns="http://www.w3.org/2000/svg">
</g>
<g xmlns="http://www.w3.org/2000/svg">
</g>
<g xmlns="http://www.w3.org/2000/svg">
</g>
<g xmlns="http://www.w3.org/2000/svg">
</g>
<g xmlns="http://www.w3.org/2000/svg">
</g>
<g xmlns="http://www.w3.org/2000/svg">
</g>
<g xmlns="http://www.w3.org/2000/svg">
</g>
<g xmlns="http://www.w3.org/2000/svg">
</g>
<g xmlns="http://www.w3.org/2000/svg">
</g>
<g xmlns="http://www.w3.org/2000/svg">
</g>
<g xmlns="http://www.w3.org/2000/svg">
</g>
<g xmlns="http://www.w3.org/2000/svg">
</g>
<g xmlns="http://www.w3.org/2000/svg">
</g>
<g xmlns="http://www.w3.org/2000/svg">
</g>
</g></svg>
